<?xml version="1.0" encoding="utf-8"?>
<svg xmlns="http://www.w3.org/2000/svg" viewBox="0 0 161.1 171.9">
  <g id="Layer_1" transform="matrix(1, 0, 0, 1, -89.514497, -184.757998)">
    <path class="st1" d="M 250.269 229.158 C 249.869 225.358 248.469 221.858 246.669 218.558 C 244.369 214.358 241.569 210.358 237.769 207.258 C 234.969 204.958 231.969 203.058 228.669 201.558 C 224.669 199.758 220.669 198.358 216.269 198.258 C 213.069 198.258 209.869 197.858 206.769 198.258 C 201.869 198.958 197.269 200.658 193.069 203.258 C 188.469 206.058 184.669 209.558 181.469 213.958 C 177.969 218.758 175.869 224.058 174.469 229.758 L 92.969 229.758 C 91.069 229.758 89.769 230.458 89.569 232.458 C 89.369 234.258 89.769 236.158 89.969 237.958 C 90.369 240.958 90.869 243.858 91.169 246.858 C 91.469 249.358 91.669 251.858 92.069 254.358 C 92.369 256.858 92.769 259.258 93.069 261.758 C 93.369 264.258 93.469 265.058 93.669 266.658 C 94.069 269.758 94.569 272.758 94.969 275.858 C 95.269 278.158 95.569 280.358 95.869 282.658 C 96.269 285.858 96.769 288.958 97.169 292.058 C 97.469 294.358 97.769 296.658 98.069 298.958 C 98.469 302.058 98.969 305.258 99.369 308.358 C 99.669 310.758 99.969 313.258 100.269 315.658 C 100.669 318.758 101.169 321.758 101.569 324.858 C 101.869 327.258 102.169 329.758 102.469 332.158 C 102.769 334.558 103.169 336.958 103.469 339.358 C 103.769 341.958 104.069 344.558 105.469 346.858 C 106.369 348.358 107.269 349.958 108.369 351.258 C 112.569 355.858 117.969 356.858 123.969 356.558 C 126.669 356.358 129.369 356.558 132.069 356.558 C 134.769 356.558 135.569 356.658 137.269 356.658 L 158.969 356.658 C 161.469 356.658 163.969 356.558 166.369 356.558 C 170.369 356.558 174.369 356.558 178.369 356.558 C 181.269 356.558 184.269 356.658 187.169 356.258 C 192.869 355.358 196.769 351.958 199.269 346.958 C 200.869 343.558 201.169 339.858 201.569 336.258 C 201.869 333.958 202.169 331.658 202.469 329.358 C 202.769 326.958 203.169 324.558 203.469 322.058 C 203.769 319.558 204.069 317.158 204.369 314.758 C 204.669 312.458 205.069 310.258 205.369 307.958 C 205.669 305.558 206.069 303.158 206.369 300.858 C 206.669 298.558 206.969 296.358 207.269 294.058 C 207.569 291.658 207.869 289.158 208.169 286.758 C 208.469 284.158 208.869 281.558 209.169 278.758 C 209.469 276.658 209.869 274.758 210.169 272.758 C 211.269 272.858 212.269 273.158 213.369 273.058 C 216.169 272.858 219.069 272.858 221.869 272.158 C 227.969 270.758 233.469 268.058 238.069 263.758 C 241.669 260.558 244.769 256.858 246.869 252.458 C 248.969 248.158 250.369 243.658 250.569 238.958 C 250.769 235.758 250.469 232.458 250.069 229.258 L 250.269 229.158 Z M 187.669 215.858 C 192.169 220.458 196.769 225.158 201.469 230.058 L 180.969 230.058 C 181.869 224.658 184.369 220.258 187.669 215.858 L 187.669 215.858 Z M 205.969 260.158 C 204.369 260.158 202.569 260.258 200.869 260.258 C 197.169 260.258 193.569 260.258 189.869 260.258 C 189.069 260.258 188.369 259.858 187.569 259.758 C 187.069 259.758 186.569 259.958 186.069 259.958 C 184.669 259.958 183.269 259.658 181.969 259.958 C 181.269 260.158 180.469 258.758 179.969 260.158 C 179.669 260.058 179.469 259.858 179.069 259.758 C 178.869 259.758 178.669 259.758 178.469 259.658 C 178.469 260.558 177.669 260.158 177.269 260.158 C 176.269 260.158 175.369 259.858 174.369 259.758 C 173.869 259.758 173.269 259.758 172.869 259.958 C 171.769 260.358 170.769 260.558 169.769 259.758 C 169.669 259.758 169.369 259.758 168.769 259.758 C 169.269 259.958 169.469 260.058 169.669 260.158 C 169.569 260.158 169.469 260.258 169.469 260.258 C 167.069 260.258 164.669 260.058 162.169 260.258 C 161.069 260.258 159.969 259.858 158.969 259.858 C 157.969 259.858 156.669 260.158 155.569 260.258 C 154.969 260.258 154.369 259.958 153.669 260.258 C 152.969 260.458 152.069 260.358 151.269 260.258 C 150.569 260.258 149.969 259.858 149.269 259.858 C 149.469 259.958 149.669 260.058 149.869 260.158 C 149.869 260.158 149.869 260.258 149.869 260.358 C 148.269 260.158 146.669 260.058 145.069 259.858 C 145.169 259.958 145.369 260.058 145.769 260.358 C 144.869 260.258 144.269 260.158 143.669 259.958 C 143.569 259.958 143.469 259.758 143.269 259.758 L 143.269 260.158 L 141.569 260.158 C 140.269 260.158 138.969 260.158 137.669 260.058 C 136.169 260.058 134.769 259.858 133.369 259.858 C 131.969 259.858 130.069 260.158 128.469 260.158 C 126.869 260.158 124.469 259.858 122.469 259.858 C 118.669 259.858 114.769 260.158 110.969 260.258 C 109.769 260.258 108.569 260.258 107.469 260.258 C 105.969 260.258 104.569 261.858 104.769 263.358 C 105.169 266.258 105.669 269.258 106.069 272.158 C 106.369 274.458 106.669 276.758 106.969 279.058 C 107.369 282.158 107.869 285.258 108.269 288.358 C 108.569 290.658 108.869 292.958 109.169 295.258 C 109.569 298.258 109.969 301.258 110.369 304.258 C 110.569 306.058 110.869 307.858 111.069 309.658 C 111.369 312.058 111.769 314.458 112.069 316.758 C 112.369 319.158 112.669 321.458 112.969 323.858 C 113.469 327.558 113.469 331.458 115.169 334.858 C 117.169 338.758 120.369 340.958 124.669 341.658 C 125.969 341.858 127.269 341.958 128.569 341.958 L 182.169 341.958 C 184.969 341.958 186.369 339.358 185.069 337.258 C 184.469 336.258 183.469 335.858 182.269 335.858 L 127.469 335.858 C 122.669 335.858 120.169 333.158 119.569 328.658 C 118.969 324.158 118.269 319.758 117.669 315.258 C 117.269 312.058 116.969 308.958 116.569 305.758 C 116.069 302.058 115.469 298.358 114.969 294.658 C 114.669 292.158 114.469 289.658 114.069 287.158 C 113.669 284.258 113.169 281.458 112.769 278.558 C 112.469 276.358 112.169 274.158 111.869 271.858 C 111.669 269.858 111.369 267.858 111.069 265.758 L 181.769 265.758 C 189.469 265.758 197.169 265.758 205.069 265.758 C 204.869 267.958 204.669 270.058 204.369 272.158 C 204.069 274.658 203.669 277.258 203.369 279.758 C 203.069 282.158 202.669 284.558 202.369 286.958 C 202.069 289.258 201.769 291.558 201.469 293.858 C 201.169 296.258 200.769 298.658 200.469 300.958 C 200.169 303.358 199.869 305.658 199.569 308.058 C 199.169 311.158 198.669 314.358 198.269 317.458 C 197.969 319.758 197.669 321.958 197.369 324.258 C 196.969 327.458 196.469 330.558 196.069 333.758 C 195.669 336.458 195.569 339.158 194.869 341.858 C 193.869 346.158 190.269 349.958 185.769 350.358 C 184.569 350.458 183.369 350.658 182.169 350.658 L 157.169 350.658 C 157.169 350.658 121.869 350.658 121.869 350.658 C 118.169 350.658 114.969 349.558 112.569 346.758 C 110.969 344.858 110.069 342.758 109.769 340.258 C 109.369 337.158 108.869 334.058 108.469 330.958 C 108.169 328.558 107.869 326.158 107.569 323.758 C 107.269 321.258 106.869 318.658 106.569 316.158 C 106.269 313.858 105.969 311.658 105.669 309.358 C 105.269 306.158 104.769 303.058 104.369 299.958 C 104.069 297.558 103.769 295.058 103.469 292.658 C 103.169 290.458 102.969 288.258 102.569 285.958 C 102.369 284.158 102.069 282.458 101.769 280.658 C 101.269 277.458 100.869 274.258 100.369 270.958 C 100.069 268.658 99.869 266.358 99.469 264.058 C 99.069 260.858 98.569 257.758 98.169 254.558 C 97.869 252.258 97.669 249.858 97.269 247.458 C 96.869 244.558 96.369 241.658 95.969 238.758 C 95.869 237.758 95.769 236.758 95.569 235.758 L 209.069 235.758 C 207.969 243.858 206.969 251.658 205.869 259.858 L 205.969 260.158 Z M 209.769 229.558 C 203.869 223.758 197.869 217.858 191.669 211.658 C 194.169 210.058 196.469 208.658 198.769 207.258 C 202.369 205.458 205.969 204.558 209.769 204.158 L 209.769 229.558 Z M 215.869 228.458 L 215.869 204.258 C 222.469 204.958 228.369 207.558 233.869 212.358 C 227.769 218.058 221.869 223.558 215.869 229.158 L 215.869 230.058 C 215.769 229.858 215.669 229.658 215.469 229.458 C 215.569 229.358 215.669 229.258 215.869 229.158 L 215.869 228.558 L 215.869 228.458 Z M 231.569 261.758 C 230.569 262.458 229.569 263.258 228.469 263.758 C 226.269 264.658 223.969 265.458 221.769 266.258 C 221.269 266.458 220.769 266.458 220.369 266.558 C 217.569 266.758 214.969 266.858 212.469 266.958 C 212.069 266.958 211.769 266.758 211.269 266.658 C 211.269 266.658 211.269 266.858 211.069 267.058 L 210.969 267.058 C 212.069 258.858 213.169 250.758 214.269 243.058 C 215.069 243.758 216.169 244.558 217.169 245.458 C 221.269 249.558 225.369 253.658 229.569 257.758 C 233.769 261.858 230.969 259.258 231.769 259.858 C 232.469 260.558 232.369 261.158 231.769 261.658 L 231.569 261.758 Z M 237.169 256.658 C 231.469 250.958 225.769 245.258 220.069 239.558 L 244.669 239.558 C 243.669 246.058 241.469 251.958 237.169 256.658 Z M 244.469 233.858 L 220.269 233.858 C 226.169 227.858 231.869 222.058 237.669 216.158 C 238.369 217.058 239.069 217.958 239.769 218.858 C 240.169 219.858 240.469 220.758 240.869 221.558 C 240.869 221.758 241.369 221.758 241.469 221.958 C 243.069 225.158 244.169 228.458 244.669 231.958 C 244.669 232.558 244.569 233.158 244.469 233.758 L 244.469 233.858 Z" style="fill: rgb(255, 255, 255); stroke-width: 1;"/>
    <line class="st0" x1="136.069" y1="319.258" x2="122.969" y2="184.758" style="fill: none; stroke: rgb(255, 255, 255); stroke-miterlimit: 10; stroke-width: 6;"/>
    <line class="st0" x1="95.569" y1="185.858" x2="121.669" y2="187.558" style="fill: none; stroke: rgb(255, 255, 255); stroke-miterlimit: 10; stroke-width: 6;"/>
    <rect class="st1" x="129.469" y="304.758" width="16.2" height="15.9" rx="5.2" ry="5.2" style="fill: rgb(255, 255, 255); stroke-width: 1;"/>
    <rect class="st1" x="149.269" y="285.558" width="16.2" height="15.9" rx="5.2" ry="5.2" style="fill: rgb(255, 255, 255); stroke-width: 1;"/>
    <rect class="st1" x="170.069" y="301.058" width="16.2" height="15.9" rx="5.2" ry="5.2" style="fill: rgb(255, 255, 255); stroke-width: 1;"/>
  </g>
</svg>