<?xml version="1.0" encoding="utf-8"?>
<svg xmlns="http://www.w3.org/2000/svg" viewBox="100 100 161.1 171.9">
  <g id="Layer_1" transform="matrix(1, 0, 0, 1, -49.437501, -31.005007)">
    <path class="st1" d="M 310.192 175.405 C 309.792 171.605 308.392 168.105 306.592 164.805 C 304.292 160.605 301.492 156.605 297.692 153.505 C 294.892 151.205 291.892 149.305 288.592 147.805 C 284.592 146.005 280.592 144.605 276.192 144.505 C 272.992 144.505 269.792 144.105 266.692 144.505 C 261.792 145.205 257.192 146.905 252.992 149.505 C 248.392 152.305 244.592 155.805 241.392 160.205 C 237.892 165.005 235.792 170.305 234.392 176.005 L 152.892 176.005 C 150.992 176.005 149.692 176.705 149.492 178.705 C 149.292 180.505 149.692 182.405 149.892 184.205 C 150.292 187.205 150.792 190.105 151.092 193.105 C 151.392 195.605 151.592 198.105 151.992 200.605 C 152.292 203.105 152.692 205.505 152.992 208.005 C 153.292 210.505 153.392 211.305 153.592 212.905 C 153.992 216.005 154.492 219.005 154.892 222.105 C 155.192 224.405 155.492 226.605 155.792 228.905 C 156.192 232.105 156.692 235.205 157.092 238.305 C 157.392 240.605 157.692 242.905 157.992 245.205 C 158.392 248.305 158.892 251.505 159.292 254.605 C 159.592 257.005 159.892 259.505 160.192 261.905 C 160.592 265.005 161.092 268.005 161.492 271.105 C 161.792 273.505 162.092 276.005 162.392 278.405 C 162.692 280.805 163.092 283.205 163.392 285.605 C 163.692 288.205 163.992 290.805 165.392 293.105 C 166.292 294.605 167.192 296.205 168.292 297.505 C 172.492 302.105 177.892 303.105 183.892 302.805 C 186.592 302.605 189.292 302.805 191.992 302.805 C 194.692 302.805 195.492 302.905 197.192 302.905 L 218.892 302.905 C 221.392 302.905 223.892 302.805 226.292 302.805 C 230.292 302.805 234.292 302.805 238.292 302.805 C 241.192 302.805 244.192 302.905 247.092 302.505 C 252.792 301.605 256.692 298.205 259.192 293.205 C 260.792 289.805 261.092 286.105 261.492 282.505 C 261.792 280.205 262.092 277.905 262.392 275.605 C 262.692 273.205 263.092 270.805 263.392 268.305 C 263.692 265.805 263.992 263.405 264.292 261.005 C 264.592 258.705 264.992 256.505 265.292 254.205 C 265.592 251.805 265.992 249.405 266.292 247.105 C 266.592 244.805 266.892 242.605 267.192 240.305 C 267.492 237.905 267.792 235.405 268.092 233.005 C 268.392 230.405 268.792 227.805 269.092 225.005 C 269.392 222.905 269.792 221.005 270.092 219.005 C 271.192 219.105 272.192 219.405 273.292 219.305 C 276.092 219.105 278.992 219.105 281.792 218.405 C 287.892 217.005 293.392 214.305 297.992 210.005 C 301.592 206.805 304.692 203.105 306.792 198.705 C 308.892 194.405 310.292 189.905 310.492 185.205 C 310.692 182.005 310.392 178.705 309.992 175.505 L 310.192 175.405 Z M 247.592 162.105 C 252.092 166.705 256.692 171.405 261.392 176.305 L 240.892 176.305 C 241.792 170.905 244.292 166.505 247.592 162.105 L 247.592 162.105 Z M 265.892 206.405 C 264.292 206.405 262.492 206.505 260.792 206.505 C 257.092 206.505 253.492 206.505 249.792 206.505 C 248.992 206.505 248.292 206.105 247.492 206.005 C 246.992 206.005 246.492 206.205 245.992 206.205 C 244.592 206.205 243.192 205.905 241.892 206.205 C 241.192 206.405 240.392 205.005 239.892 206.405 C 239.592 206.305 239.392 206.105 238.992 206.005 C 238.792 206.005 238.592 206.005 238.392 205.905 C 238.392 206.805 237.592 206.405 237.192 206.405 C 236.192 206.405 235.292 206.105 234.292 206.005 C 233.792 206.005 233.192 206.005 232.792 206.205 C 231.692 206.605 230.692 206.805 229.692 206.005 C 229.592 206.005 229.292 206.005 228.692 206.005 C 229.192 206.205 229.392 206.305 229.592 206.405 C 229.492 206.405 229.392 206.505 229.392 206.505 C 226.992 206.505 224.592 206.305 222.092 206.505 C 220.992 206.505 219.892 206.105 218.892 206.105 C 217.892 206.105 216.592 206.405 215.492 206.505 C 214.892 206.505 214.292 206.205 213.592 206.505 C 212.892 206.705 211.992 206.605 211.192 206.505 C 210.492 206.505 209.892 206.105 209.192 206.105 C 209.392 206.205 209.592 206.305 209.792 206.405 C 209.792 206.405 209.792 206.505 209.792 206.605 C 208.192 206.405 206.592 206.305 204.992 206.105 C 205.092 206.205 205.292 206.305 205.692 206.605 C 204.792 206.505 204.192 206.405 203.592 206.205 C 203.492 206.205 203.392 206.005 203.192 206.005 L 203.192 206.405 L 201.492 206.405 C 200.192 206.405 198.892 206.405 197.592 206.305 C 196.092 206.305 194.692 206.105 193.292 206.105 C 191.892 206.105 189.992 206.405 188.392 206.405 C 186.792 206.405 184.392 206.105 182.392 206.105 C 178.592 206.105 174.692 206.405 170.892 206.505 C 169.692 206.505 168.492 206.505 167.392 206.505 C 165.892 206.505 164.492 208.105 164.692 209.605 C 165.092 212.505 165.592 215.505 165.992 218.405 C 166.292 220.705 166.592 223.005 166.892 225.305 C 167.292 228.405 167.792 231.505 168.192 234.605 C 168.492 236.905 168.792 239.205 169.092 241.505 C 169.492 244.505 169.892 247.505 170.292 250.505 C 170.492 252.305 170.792 254.105 170.992 255.905 C 171.292 258.305 171.692 260.705 171.992 263.005 C 172.292 265.405 172.592 267.705 172.892 270.105 C 173.392 273.805 173.392 277.705 175.092 281.105 C 177.092 285.005 180.292 287.205 184.592 287.905 C 185.892 288.105 187.192 288.205 188.492 288.205 L 242.092 288.205 C 244.892 288.205 246.292 285.605 244.992 283.505 C 244.392 282.505 243.392 282.105 242.192 282.105 L 187.392 282.105 C 182.592 282.105 180.092 279.405 179.492 274.905 C 178.892 270.405 178.192 266.005 177.592 261.505 C 177.192 258.305 176.892 255.205 176.492 252.005 C 175.992 248.305 175.392 244.605 174.892 240.905 C 174.592 238.405 174.392 235.905 173.992 233.405 C 173.592 230.505 173.092 227.705 172.692 224.805 C 172.392 222.605 172.092 220.405 171.792 218.105 C 171.592 216.105 171.292 214.105 170.992 212.005 L 241.692 212.005 C 249.392 212.005 257.092 212.005 264.992 212.005 C 264.792 214.205 264.592 216.305 264.292 218.405 C 263.992 220.905 263.592 223.505 263.292 226.005 C 262.992 228.405 262.592 230.805 262.292 233.205 C 261.992 235.505 261.692 237.805 261.392 240.105 C 261.092 242.505 260.692 244.905 260.392 247.205 C 260.092 249.605 259.792 251.905 259.492 254.305 C 259.092 257.405 258.592 260.605 258.192 263.705 C 257.892 266.005 257.592 268.205 257.292 270.505 C 256.892 273.705 256.392 276.805 255.992 280.005 C 255.592 282.705 255.492 285.405 254.792 288.105 C 253.792 292.405 250.192 296.205 245.692 296.605 C 244.492 296.705 243.292 296.905 242.092 296.905 L 217.092 296.905 C 217.092 296.905 181.792 296.905 181.792 296.905 C 178.092 296.905 174.892 295.805 172.492 293.005 C 170.892 291.105 169.992 289.005 169.692 286.505 C 169.292 283.405 168.792 280.305 168.392 277.205 C 168.092 274.805 167.792 272.405 167.492 270.005 C 167.192 267.505 166.792 264.905 166.492 262.405 C 166.192 260.105 165.892 257.905 165.592 255.605 C 165.192 252.405 164.692 249.305 164.292 246.205 C 163.992 243.805 163.692 241.305 163.392 238.905 C 163.092 236.705 162.892 234.505 162.492 232.205 C 162.292 230.405 161.992 228.705 161.692 226.905 C 161.192 223.705 160.792 220.505 160.292 217.205 C 159.992 214.905 159.792 212.605 159.392 210.305 C 158.992 207.105 158.492 204.005 158.092 200.805 C 157.792 198.505 157.592 196.105 157.192 193.705 C 156.792 190.805 156.292 187.905 155.892 185.005 C 155.792 184.005 155.692 183.005 155.492 182.005 L 268.992 182.005 C 267.892 190.105 266.892 197.905 265.792 206.105 L 265.892 206.405 Z M 269.692 175.805 C 263.792 170.005 257.792 164.105 251.592 157.905 C 254.092 156.305 256.392 154.905 258.692 153.505 C 262.292 151.705 265.892 150.805 269.692 150.405 L 269.692 175.805 Z M 275.892 174.705 L 275.892 150.505 C 282.492 151.205 288.392 153.805 293.892 158.605 C 287.792 164.305 281.892 169.805 275.892 175.405 L 275.892 176.305 C 275.792 176.105 275.692 175.905 275.492 175.705 C 275.592 175.605 275.692 175.505 275.892 175.405 L 275.892 174.805 L 275.892 174.705 Z M 291.592 208.005 C 290.592 208.705 289.592 209.505 288.492 210.005 C 286.292 210.905 283.992 211.705 281.792 212.505 C 281.292 212.705 280.792 212.705 280.392 212.805 C 277.592 213.005 274.992 213.105 272.492 213.205 C 272.092 213.205 271.792 213.005 271.292 212.905 C 271.292 212.905 271.292 213.105 271.092 213.305 L 270.992 213.305 C 272.092 205.105 273.192 197.005 274.292 189.305 C 275.092 190.005 276.192 190.805 277.192 191.705 C 281.292 195.805 285.392 199.905 289.592 204.005 C 293.792 208.105 290.992 205.505 291.792 206.105 C 292.492 206.805 292.392 207.405 291.792 207.905 L 291.592 208.005 Z M 297.092 202.905 C 291.392 197.205 285.692 191.505 279.992 185.805 L 304.592 185.805 C 303.592 192.305 301.392 198.205 297.092 202.905 L 297.092 202.905 Z M 304.492 180.105 L 280.292 180.105 C 286.192 174.105 291.892 168.305 297.692 162.405 C 298.392 163.305 299.092 164.205 299.792 165.105 C 300.192 166.105 300.492 167.005 300.892 167.805 C 300.892 168.005 301.392 168.005 301.492 168.205 C 303.092 171.405 304.192 174.705 304.692 178.205 C 304.692 178.805 304.592 179.405 304.492 180.005 L 304.492 180.105 Z" style="fill: rgb(255, 255, 255); stroke-width: 1;"/>
    <line class="st0" x1="195.992" y1="265.505" x2="182.892" y2="131.005" style="fill: none; stroke: rgb(255, 255, 255); stroke-miterlimit: 10; stroke-width: 6;"/>
    <line class="st0" x1="156.092" y1="150.005" x2="181.592" y2="133.805" style="fill: none; stroke: rgb(255, 255, 255); stroke-miterlimit: 10; stroke-width: 6;"/>
    <rect class="st1" x="188.292" y="261.605" width="16.2" height="15.9" rx="5.2" ry="5.2" style="fill: rgb(255, 255, 255); stroke-width: 1;"/>
    <rect class="st1" x="209.292" y="252.605" width="16.2" height="15.9" rx="5.2" ry="5.2" style="fill: rgb(255, 255, 255); stroke-width: 1;"/>
    <rect class="st1" x="230.092" y="260.505" width="16.2" height="15.9" rx="5.2" ry="5.2" style="fill: rgb(255, 255, 255); stroke-width: 1;"/>
  </g>
</svg>