<?xml version="1.0" encoding="utf-8"?>
<svg id="Layer_1" xmlns="http://www.w3.org/2000/svg" version="1.1" viewBox="0 0 161.1 171.9">
  <defs>
    <style>
      .st0 {
        fill: none;
        stroke: #fff;
        stroke-miterlimit: 10;
        stroke-width: 30px;
      }

      .st1 {
        fill: #fff;
      }
    </style>
  </defs>
  <g id="svg-1" transform="matrix(0.27435, 0, 0, 0.274587, 19.62723, -11.81878)">
    <path class="st1" d="M 513.598 204.842 C 511.998 191.142 507.098 178.242 500.598 166.242 C 492.198 150.842 481.998 136.542 468.198 125.142 C 457.998 116.842 447.198 109.742 435.198 104.442 C 420.798 98.042 406.098 92.742 390.098 92.442 C 378.598 92.142 366.898 91.142 355.598 92.742 C 337.898 95.342 320.998 101.342 305.598 110.942 C 288.998 121.242 274.998 134.042 263.498 149.842 C 250.698 167.242 242.998 186.742 238.098 207.442 L -58.802 207.442 C -65.802 207.442 -70.502 210.142 -71.302 217.142 C -72.102 223.642 -70.702 230.542 -69.902 237.242 C -68.602 248.142 -66.802 258.842 -65.402 269.642 C -64.202 278.742 -63.402 287.742 -62.202 296.842 C -61.002 305.842 -59.602 314.842 -58.402 323.842 C -57.202 332.842 -57.002 335.842 -56.202 341.842 C -54.702 352.942 -52.902 364.042 -51.402 375.142 C -50.202 383.342 -49.302 391.642 -48.202 399.842 C -46.702 411.342 -45.002 422.742 -43.402 434.142 C -42.202 442.542 -41.102 450.942 -40.002 459.342 C -38.502 470.742 -36.902 482.242 -35.402 493.642 C -34.202 502.542 -33.202 511.442 -32.002 520.342 C -30.502 531.442 -28.902 542.542 -27.402 553.642 C -26.202 562.542 -25.202 571.442 -24.002 580.342 C -22.902 589.042 -21.502 597.742 -20.402 606.442 C -19.202 615.842 -18.302 625.342 -13.302 633.642 C -10.002 639.142 -6.902 644.942 -2.602 649.642 C 12.698 666.242 32.498 670.142 54.098 668.842 C 63.898 668.242 73.698 668.642 83.498 668.642 C 93.298 668.642 96.198 669.042 102.498 669.042 L 181.498 669.042 C 190.498 669.042 199.598 668.642 208.598 668.642 C 223.198 668.642 237.798 668.842 252.398 668.642 C 263.098 668.642 273.898 669.042 284.298 667.442 C 304.898 664.342 319.198 651.742 328.198 633.442 C 334.198 621.242 334.998 607.642 336.598 594.342 C 337.698 585.942 338.798 577.542 339.898 569.142 C 341.098 560.342 342.398 551.542 343.598 542.642 C 344.798 533.742 345.798 524.842 346.998 515.942 C 348.098 507.742 349.398 499.542 350.598 491.342 C 351.798 482.742 353.098 474.042 354.298 465.342 C 355.498 457.142 356.498 448.842 357.598 440.642 C 358.798 431.742 359.898 422.842 360.998 413.942 C 362.198 404.442 363.498 394.942 364.698 384.942 L 364.698 384.642 C 365.898 377.342 367.098 370.442 368.298 363.142 C 372.198 363.542 376.098 364.542 379.898 364.242 C 390.198 363.542 400.798 363.342 410.798 361.042 C 432.898 355.842 452.898 345.942 469.898 330.542 C 482.998 318.742 494.098 305.342 501.998 289.442 C 509.698 273.942 514.598 257.442 515.498 240.242 C 516.098 228.542 514.998 216.542 513.598 204.842 L 513.598 204.842 Z M 285.798 156.242 C 302.298 173.142 318.798 190.142 335.898 207.742 L 261.298 207.742 C 264.398 188.142 273.798 172.042 285.798 156.242 Z M 352.498 317.542 C 346.498 317.742 340.098 318.042 333.798 318.042 C 320.398 318.042 307.098 318.242 293.798 318.042 C 290.998 317.942 288.198 316.642 285.398 316.342 C 283.598 316.142 281.698 317.142 279.898 317.142 C 274.898 317.142 269.598 316.142 264.898 317.142 C 262.498 317.742 259.298 312.842 257.798 317.942 C 256.798 317.442 255.798 316.842 254.698 316.442 C 253.998 316.142 253.198 316.142 252.498 316.042 C 252.198 319.442 249.598 317.942 248.098 317.842 C 244.598 317.542 241.098 316.642 237.598 316.242 C 235.798 316.042 233.698 316.242 232.098 316.842 C 228.098 318.442 224.398 319.142 220.798 316.042 C 220.298 315.742 219.198 316.042 217.298 316.042 C 219.098 316.842 219.798 317.142 220.698 317.542 C 220.298 317.742 219.998 317.942 219.798 317.942 C 210.998 317.942 202.198 317.142 193.398 317.942 C 189.498 318.242 185.498 316.642 181.598 316.642 C 177.698 316.642 173.398 317.742 169.298 318.042 C 166.998 318.242 164.898 316.942 162.298 318.042 C 159.698 318.942 156.398 318.542 153.498 318.042 C 151.098 317.842 148.798 316.742 146.298 316.642 C 147.098 317.042 147.798 317.342 148.598 317.742 C 148.598 317.942 148.398 318.142 148.398 318.342 C 142.698 317.742 136.898 317.142 131.098 316.542 C 131.598 316.942 132.098 317.342 133.498 318.442 C 130.298 317.942 128.098 317.542 125.898 317.142 C 125.398 317.142 124.998 316.542 124.598 316.242 L 124.598 317.842 L 118.298 317.842 C 113.598 317.842 108.898 317.642 104.198 317.442 C 98.898 317.142 93.698 316.642 88.498 316.642 C 83.298 316.642 76.498 317.742 70.498 317.742 C 64.498 317.742 55.798 316.542 48.498 316.542 C 34.498 316.742 20.498 317.542 6.498 318.042 C 2.198 318.042 -2.102 317.742 -6.402 318.042 C -12.002 318.342 -16.902 323.842 -16.202 329.242 C -14.902 339.942 -13.002 350.642 -11.502 361.442 C -10.402 369.842 -9.402 378.242 -8.302 386.642 C -6.702 397.942 -5.002 409.142 -3.502 420.442 C -2.402 428.842 -1.402 437.242 -0.302 445.642 C 1.098 456.642 2.598 467.542 3.998 478.542 C 4.798 485.142 5.798 491.742 6.698 498.342 C 7.898 506.942 9.198 515.642 10.398 524.342 C 11.598 532.942 12.498 541.542 13.698 550.042 C 15.698 563.542 15.398 577.642 21.798 590.242 C 28.998 604.342 40.798 612.342 56.298 614.842 C 60.998 615.542 65.798 615.842 70.498 615.842 L 265.498 615.842 C 275.598 615.842 280.698 606.342 276.098 598.742 C 273.798 595.042 270.298 593.642 265.898 593.642 L 66.398 593.642 C 49.098 593.642 39.798 583.942 37.598 567.342 C 35.398 551.142 32.898 534.942 30.698 518.642 C 29.198 507.142 28.098 495.642 26.598 484.142 C 24.798 470.642 22.498 457.142 20.698 443.642 C 19.498 434.642 18.798 425.542 17.598 416.442 C 16.098 405.942 14.298 395.542 12.798 385.142 C 11.598 377.042 10.598 369.042 9.598 360.942 C 8.698 353.642 7.798 346.442 6.798 338.642 L 263.998 338.642 C 292.098 338.642 320.198 338.442 348.898 338.842 C 347.998 346.842 347.298 354.542 346.298 362.242 C 345.198 371.442 343.898 380.642 342.598 389.842 C 341.398 398.542 340.198 407.242 338.998 415.942 C 337.798 424.242 336.798 432.642 335.598 441.042 C 334.398 449.642 333.098 458.342 331.898 467.042 C 330.698 475.642 329.698 484.142 328.598 492.742 C 327.098 504.142 325.498 515.642 323.898 527.042 C 322.798 535.242 321.698 543.542 320.598 551.742 C 318.998 563.342 317.298 574.842 315.698 586.442 C 314.298 596.242 313.698 606.242 311.498 615.842 C 307.998 631.342 294.898 645.342 278.398 646.642 C 273.998 647.042 269.598 647.642 265.198 647.642 L 174.198 647.642 L 174.498 647.842 L 45.998 647.842 C 32.698 647.842 20.998 643.942 12.198 633.542 C 6.398 626.742 2.998 618.942 1.898 610.042 C 0.498 598.742 -1.402 587.542 -2.902 576.242 C -4.102 567.542 -5.002 558.742 -6.102 550.042 C -7.302 540.842 -8.702 531.542 -9.902 522.342 C -11.002 514.142 -12.002 505.842 -13.102 497.642 C -14.702 486.142 -16.402 474.742 -17.902 463.342 C -19.002 454.442 -20.002 445.542 -21.102 436.642 C -22.102 428.542 -23.102 420.542 -24.202 412.442 C -25.002 405.942 -26.102 399.542 -27.002 393.142 C -28.702 381.442 -30.402 369.742 -32.002 357.942 C -33.102 349.542 -34.002 341.142 -35.102 332.742 C -36.602 321.142 -38.502 309.642 -40.002 298.042 C -41.202 289.542 -41.902 280.942 -43.102 272.342 C -44.602 261.742 -46.302 251.142 -47.802 240.542 C -48.302 236.842 -48.702 233.142 -49.102 229.642 L 364.098 229.642 C 360.198 259.042 356.398 287.642 352.498 317.442 L 352.498 317.542 Z M 366.398 206.042 C 345.098 185.042 323.198 163.342 300.398 140.842 C 309.598 135.142 317.898 129.942 326.198 124.742 C 339.198 118.142 352.398 114.942 366.398 113.642 L 366.398 206.042 Z M 388.698 202.042 L 388.698 113.842 C 412.798 116.442 434.298 125.942 454.198 143.142 C 431.898 163.842 410.398 183.942 388.698 204.142 L 388.698 207.442 C 388.298 206.742 387.798 206.042 387.398 205.342 C 387.798 204.942 388.298 204.542 388.698 204.142 L 388.698 202.042 L 388.698 202.042 Z M 445.798 323.242 C 442.098 325.842 438.498 328.642 434.398 330.442 C 426.398 333.842 418.198 336.642 410.098 339.642 C 408.398 340.242 406.598 340.342 404.898 340.742 C 394.698 341.342 385.398 341.842 376.098 342.242 C 374.798 342.242 373.398 341.542 371.898 341.142 C 371.898 341.142 371.598 341.842 371.298 342.642 L 370.898 342.642 C 374.898 312.942 378.998 283.242 382.798 255.142 C 385.698 257.642 389.698 260.642 393.198 264.042 C 408.298 278.942 423.198 293.942 438.198 308.942 C 453.198 323.942 443.398 314.242 446.098 316.742 C 448.598 319.142 448.398 321.442 445.798 323.342 L 445.798 323.242 Z M 466.098 304.942 C 445.298 284.142 424.498 263.442 403.798 242.742 L 493.398 242.742 C 489.798 266.542 481.598 287.942 466.098 304.942 L 466.098 304.942 Z M 492.798 221.742 L 404.698 221.742 C 426.198 199.842 446.898 178.842 468.098 157.342 C 470.598 160.742 473.198 164.042 475.698 167.342 C 477.298 170.942 478.298 174.142 479.598 177.142 C 479.898 177.742 481.498 177.842 481.898 178.542 C 487.898 190.042 491.598 202.342 493.598 215.042 C 493.898 217.142 493.098 219.442 492.798 221.742 Z" style="stroke-width: 1;"/>
    <polygon class="st1" points="165.698 466.242 165.698 466.242 165.698 466.242 165.698 466.242" style="stroke-width: 1;"/>
    <rect class="st1" x="222.1" y="485.5" width="61.1" height="61.1" rx="12" ry="12" transform="matrix(0.930418, 0.366501, -0.366501, 0.930418, 51.298486, -46.557984)" style="stroke-width: 1;"/>
    <rect class="st1" x="144.198" y="466.242" width="66.3" height="66.3" rx="12" ry="12" style="stroke-width: 1;"/>
    <rect class="st1" x="382.8" y="489.2" width="66.3" height="66.3" rx="12" ry="12" transform="matrix(0.956305, -0.292372, 0.292372, 0.956305, -290.701512, 155.042025)" style="stroke-width: 1;"/>
    <line class="st0" x1="98.098" y1="532.542" x2="50.598" y2="43.042" style="stroke-width: 30;"/>
    <line class="st0" x1="-49.102" y1="115.942" x2="43.898" y2="56.942" style="stroke-width: 30;"/>
  </g>
</svg>