<svg version="1.1" id="Layer_1" xmlns="http://www.w3.org/2000/svg" xmlns:xlink="http://www.w3.org/1999/xlink" x="0px" y="0px"
	 width="100%" viewBox="0 0 1024 1024" enable-background="new 0 0 1024 1024" xml:space="preserve">
<path fill="#000000" opacity="1.000000" stroke="none" 
	d="
M541.000000,1025.000000 
	C360.666656,1025.000000 180.833328,1025.000000 1.000000,1025.000000 
	C1.000000,683.666687 1.000000,342.333344 1.000000,1.000000 
	C342.333344,1.000000 683.666687,1.000000 1025.000000,1.000000 
	C1025.000000,342.333344 1025.000000,683.666687 1025.000000,1025.000000 
	C863.833313,1025.000000 702.666687,1025.000000 541.000000,1025.000000 
M664.036011,438.788635 
	C665.190247,431.946381 666.344421,425.104095 667.584167,417.754974 
	C671.428772,418.168213 675.337158,419.148865 679.162170,418.891388 
	C689.500183,418.195496 700.056946,418.065063 710.067627,415.736237 
	C732.183167,410.591400 752.191772,400.703003 769.165955,385.284821 
	C782.224854,373.422974 793.390015,360.030212 801.268860,344.151428 
	C808.960510,328.649841 813.813293,312.140930 814.737671,294.942535 
	C815.369446,283.186615 814.207153,271.239441 812.837769,259.495483 
	C811.242065,245.810516 806.315002,232.857025 799.797485,220.873184 
	C791.393677,205.420898 781.211853,191.136520 767.362854,179.746384 
	C757.221863,171.405930 746.359924,164.378601 734.405212,159.043442 
	C720.039368,152.632248 705.306641,147.359192 689.348816,147.033936 
	C677.853821,146.799652 666.157898,145.710648 654.893127,147.349823 
	C637.186584,149.926407 620.332581,155.917923 604.929993,165.510391 
	C588.392151,175.809891 574.371338,188.650162 562.847168,204.426544 
	C550.131165,221.834579 542.372559,241.322556 537.485352,262.004913 
	C466.574921,262.004913 396.087402,262.001892 325.599884,262.006439 
	C297.271484,262.008270 268.943115,262.018524 240.614716,262.043610 
	C233.615631,262.049805 228.919144,264.767090 228.079620,271.753052 
	C227.291275,278.313171 228.662033,285.187622 229.485870,291.874146 
	C230.817154,302.679108 232.563583,313.432343 233.974915,324.228302 
	C235.158234,333.279968 236.024734,342.372925 237.194412,351.426544 
	C238.359818,360.446930 239.775696,369.434723 240.990479,378.449097 
	C241.796448,384.429993 242.346176,390.445862 243.179901,396.422455 
	C244.727448,407.516266 246.457794,418.584564 247.999222,429.679169 
	C249.141739,437.902557 250.040527,446.159668 251.165024,454.385742 
	C252.726761,465.810425 254.425766,477.216309 256.013519,488.637543 
	C257.178284,497.015991 258.252533,505.406952 259.378235,513.790894 
	C260.914764,525.234070 262.490875,536.671936 263.994995,548.119385 
	C265.161713,556.998779 266.187866,565.896790 267.378265,574.772888 
	C268.868652,585.885742 270.510590,596.978271 271.997772,608.091553 
	C273.185516,616.967285 274.190125,625.867554 275.367126,634.744751 
	C276.520538,643.443970 277.907166,652.113464 278.974976,660.822449 
	C280.127991,670.226746 281.116852,679.687073 286.074463,688.027771 
	C289.359680,693.554932 292.484436,699.383301 296.782959,704.065186 
	C312.076447,720.722900 331.889465,724.603516 353.519440,723.275330 
	C363.292664,722.675293 373.127472,723.004761 382.933838,723.044128 
	C389.274170,723.069519 395.613464,723.462158 401.953430,723.467834 
	C428.276337,723.491150 454.599396,723.460693 480.922211,723.382935 
	C489.949341,723.356262 498.975494,723.056458 508.002686,723.017883 
	C522.606445,722.955505 537.212097,723.132690 551.814148,722.966309 
	C562.447510,722.845215 573.234558,723.369446 583.673767,721.776306 
	C604.282776,718.630981 618.520752,706.062439 627.567139,687.748352 
	C633.608459,675.517822 634.355957,661.908142 636.004578,648.599792 
	C637.044800,640.202637 638.120850,631.809570 639.256897,623.424866 
	C640.456543,614.570740 641.798645,605.735657 642.982178,596.879456 
	C644.168762,588.000549 645.169434,579.096619 646.375977,570.220581 
	C647.490540,562.020630 648.780884,553.844788 649.973511,545.655396 
	C651.237732,536.974670 652.515564,528.295715 653.717834,519.606323 
	C654.854980,511.387482 655.923035,503.158844 656.982483,494.929504 
	C658.126282,486.044525 659.216736,477.152679 660.345398,468.265747 
	C661.554993,458.741364 662.782104,449.219238 664.036011,438.788635 
z"/>
<path fill="#FFFFFF" opacity="1.000000" stroke="none" 
	d="
M664.018799,439.242371 
	C662.782104,449.219238 661.554993,458.741364 660.345398,468.265747 
	C659.216736,477.152679 658.126282,486.044525 656.982483,494.929504 
	C655.923035,503.158844 654.854980,511.387482 653.717834,519.606323 
	C652.515564,528.295715 651.237732,536.974670 649.973511,545.655396 
	C648.780884,553.844788 647.490540,562.020630 646.375977,570.220581 
	C645.169434,579.096619 644.168762,588.000549 642.982178,596.879456 
	C641.798645,605.735657 640.456543,614.570740 639.256897,623.424866 
	C638.120850,631.809570 637.044800,640.202637 636.004578,648.599792 
	C634.355957,661.908142 633.608459,675.517822 627.567139,687.748352 
	C618.520752,706.062439 604.282776,718.630981 583.673767,721.776306 
	C573.234558,723.369446 562.447510,722.845215 551.814148,722.966309 
	C537.212097,723.132690 522.606445,722.955505 508.002686,723.017883 
	C498.975494,723.056458 489.949341,723.356262 480.922211,723.382935 
	C454.599396,723.460693 428.276337,723.491150 401.953430,723.467834 
	C395.613464,723.462158 389.274170,723.069519 382.933838,723.044128 
	C373.127472,723.004761 363.292664,722.675293 353.519440,723.275330 
	C331.889465,724.603516 312.076447,720.722900 296.782959,704.065186 
	C292.484436,699.383301 289.359680,693.554932 286.074463,688.027771 
	C281.116852,679.687073 280.127991,670.226746 278.974976,660.822449 
	C277.907166,652.113464 276.520538,643.443970 275.367126,634.744751 
	C274.190125,625.867554 273.185516,616.967285 271.997772,608.091553 
	C270.510590,596.978271 268.868652,585.885742 267.378265,574.772888 
	C266.187866,565.896790 265.161713,556.998779 263.994995,548.119385 
	C262.490875,536.671936 260.914764,525.234070 259.378235,513.790894 
	C258.252533,505.406952 257.178284,497.015991 256.013519,488.637543 
	C254.425766,477.216309 252.726761,465.810425 251.165024,454.385742 
	C250.040527,446.159668 249.141739,437.902557 247.999222,429.679169 
	C246.457794,418.584564 244.727448,407.516266 243.179901,396.422455 
	C242.346176,390.445862 241.796448,384.429993 240.990479,378.449097 
	C239.775696,369.434723 238.359818,360.446930 237.194412,351.426544 
	C236.024734,342.372925 235.158234,333.279968 233.974915,324.228302 
	C232.563583,313.432343 230.817154,302.679108 229.485870,291.874146 
	C228.662033,285.187622 227.291275,278.313171 228.079620,271.753052 
	C228.919144,264.767090 233.615631,262.049805 240.614716,262.043610 
	C268.943115,262.018524 297.271484,262.008270 325.599884,262.006439 
	C396.087402,262.001892 466.574921,262.004913 537.485352,262.004913 
	C542.372559,241.322556 550.131165,221.834579 562.847168,204.426544 
	C574.371338,188.650162 588.392151,175.809891 604.929993,165.510391 
	C620.332581,155.917923 637.186584,149.926407 654.893127,147.349823 
	C666.157898,145.710648 677.853821,146.799652 689.348816,147.033936 
	C705.306641,147.359192 720.039368,152.632248 734.405212,159.043442 
	C746.359924,164.378601 757.221863,171.405930 767.362854,179.746384 
	C781.211853,191.136520 791.393677,205.420898 799.797485,220.873184 
	C806.315002,232.857025 811.242065,245.810516 812.837769,259.495483 
	C814.207153,271.239441 815.369446,283.186615 814.737671,294.942535 
	C813.813293,312.140930 808.960510,328.649841 801.268860,344.151428 
	C793.390015,360.030212 782.224854,373.422974 769.165955,385.284821 
	C752.191772,400.703003 732.183167,410.591400 710.067627,415.736237 
	C700.056946,418.065063 689.500183,418.195496 679.162170,418.891388 
	C675.337158,419.148865 671.428772,418.168213 667.584167,417.754974 
	C666.344421,425.104095 665.190247,431.946381 664.018799,439.242371 
M473.500000,702.001648 
	C503.829559,702.001587 534.159241,702.041687 564.488525,701.957153 
	C568.900757,701.944824 573.312256,701.348267 577.722473,701.001892 
	C594.216125,699.706238 607.279175,685.731934 610.839539,670.222595 
	C613.047302,660.605286 613.664917,650.625244 615.043091,640.814575 
	C616.669983,629.233765 618.380371,617.664612 619.991760,606.081665 
	C621.134949,597.864380 622.147644,589.629028 623.265991,581.408203 
	C624.821472,569.973999 626.458618,558.550781 627.989746,547.113342 
	C629.134521,538.561584 630.108398,529.986755 631.265991,521.436768 
	C632.442444,512.747009 633.784546,504.079803 634.991333,495.393951 
	C636.154968,487.018250 637.217468,478.628540 638.362854,470.250275 
	C639.551514,461.555634 640.802979,452.869537 641.996460,444.175537 
	C643.256897,434.993866 644.556702,425.816589 645.698364,416.619904 
	C646.651245,408.943939 647.400574,401.242676 648.279907,393.187256 
	C619.563477,392.791962 591.488220,393.060394 563.415283,393.011627 
	C534.916016,392.962128 506.416595,393.000671 477.917267,393.000671 
	C449.251251,393.000671 420.585266,393.000671 391.919250,393.000671 
	C363.312164,393.000671 334.705078,393.000671 306.177979,393.000671 
	C307.161804,400.763428 308.065521,408.013519 309.002930,415.259247 
	C310.046753,423.327423 311.034027,431.404266 312.204224,439.454315 
	C313.720673,449.886780 315.541199,460.276550 316.954437,470.722046 
	C318.178986,479.772552 318.842377,488.898956 320.068848,497.949158 
	C321.900177,511.463013 324.141663,524.921387 325.957642,538.437134 
	C327.498260,549.903931 328.527344,561.439392 330.063324,572.906921 
	C332.240906,589.164795 334.802307,605.371338 336.966156,621.630920 
	C339.169830,638.189636 348.435089,647.966736 365.791290,647.980225 
	C432.289673,648.032043 498.788208,648.030640 565.286560,647.947327 
	C569.727234,647.941772 573.216919,649.314819 575.475647,653.009277 
	C580.112488,660.593384 574.939392,670.090698 564.833862,670.069458 
	C499.835632,669.932678 434.836975,670.020813 369.838531,669.957031 
	C365.096069,669.952393 360.293945,669.699341 355.623016,668.932068 
	C340.152039,666.390320 328.293793,658.425537 321.101624,644.321350 
	C314.680054,631.728394 315.012146,617.657471 313.032074,604.113831 
	C311.784119,595.577759 310.898315,586.989380 309.740387,578.439331 
	C308.563568,569.749878 307.238037,561.080750 306.004272,552.398865 
	C305.066742,545.801697 304.136139,539.203125 303.264191,532.597046 
	C301.816498,521.628967 300.412170,510.655121 299.001434,499.682220 
	C297.921997,491.286255 296.921478,482.879730 295.776825,474.492798 
	C294.239349,463.227356 292.549347,451.982788 291.014954,440.716949 
	C289.872589,432.329346 288.963623,423.909576 287.787598,415.527008 
	C286.278229,404.768188 284.421448,394.055237 283.080139,383.277008 
	C282.402283,377.830017 287.323029,372.381805 292.834534,372.051361 
	C297.108704,371.795074 301.414734,372.123413 305.699371,371.978485 
	C319.694855,371.505127 333.683685,370.689789 347.681763,370.500854 
	C354.992279,370.402191 362.314270,371.651672 369.635773,371.711426 
	C375.624390,371.760315 381.615845,370.694672 387.613861,370.595001 
	C392.833832,370.508240 398.062836,371.126709 403.291443,371.349915 
	C407.992737,371.550659 412.698364,371.661896 417.403137,371.764008 
	C419.504333,371.809631 421.608093,371.736176 423.710693,371.716766 
	C423.696014,371.183411 423.681335,370.650055 423.666656,370.116699 
	C424.113525,370.427795 424.523834,370.920105 425.013519,371.018829 
	C427.190277,371.457611 429.389771,371.783752 432.610870,372.323029 
	C431.212524,371.179504 430.753876,370.804443 430.235382,370.380432 
	C436.046753,370.975250 441.800476,371.564148 447.554199,372.153046 
	C447.604492,371.945496 447.654816,371.737946 447.705109,371.530396 
	C446.939301,371.176758 446.173462,370.823090 445.407654,370.469452 
	C447.918732,370.586182 450.197937,371.627869 452.568604,371.915527 
	C455.500549,372.271362 458.785858,372.754944 461.405853,371.790588 
	C464.051422,370.816833 466.092133,372.073181 468.359100,371.926880 
	C472.460419,371.662201 476.532074,370.549866 480.617676,370.541626 
	C484.543854,370.533691 488.526031,372.164825 492.388367,371.861847 
	C501.229980,371.168335 510.014343,371.805695 518.822388,371.974304 
	C519.068054,371.979004 519.317993,371.755371 519.739075,371.556427 
	C518.859558,371.161377 518.105957,370.822845 516.345581,370.032104 
	C518.274170,370.032104 519.390808,369.683105 519.866272,370.087646 
	C523.472290,373.155792 527.143860,372.506287 531.116638,370.895813 
	C532.766235,370.227051 534.807129,370.144318 536.615906,370.328278 
	C540.147583,370.687469 543.625305,371.643677 547.157959,371.895081 
	C548.632812,372.000031 551.269653,373.498901 551.594971,370.129395 
	C552.324463,370.253265 553.093933,370.270447 553.774231,370.525513 
	C554.846802,370.927643 555.859375,371.489655 556.897339,371.984009 
	C558.441101,366.860809 561.551270,371.738708 563.996460,371.161682 
	C568.737732,370.042877 573.970520,371.096039 578.997925,371.053558 
	C580.824768,371.038147 582.685974,370.063751 584.462341,370.236755 
	C587.291077,370.512238 590.054932,371.877106 592.858521,371.916779 
	C606.172974,372.105225 619.491882,372.050873 632.808655,371.979340 
	C639.153564,371.945251 645.497314,371.680298 651.549500,371.527313 
	C655.486206,341.773193 659.278625,313.109314 663.169983,283.698059 
	C525.190735,283.698059 387.682709,283.698059 249.947495,283.698059 
	C250.371490,287.206726 250.744705,290.917755 251.279846,294.605255 
	C252.818283,305.206635 254.522125,315.784882 255.968857,326.398407 
	C257.135468,334.956757 257.915405,343.567535 259.060120,352.129242 
	C260.609772,363.719910 262.414307,375.276459 263.975769,386.865662 
	C265.107117,395.262390 265.931732,403.700348 267.053833,412.098450 
	C268.624390,423.853088 270.328705,435.589966 272.006775,447.330017 
	C272.925415,453.757263 273.964508,460.167664 274.847015,466.599670 
	C275.953033,474.660339 276.986633,482.731384 277.991730,490.805389 
	C279.098724,499.697876 280.053833,508.609985 281.227661,517.493347 
	C282.738861,528.930176 284.433777,540.342590 285.988312,551.773865 
	C287.106873,559.998840 288.095764,568.241333 289.196228,576.468811 
	C290.431915,585.707214 291.787720,594.929810 292.980682,604.173523 
	C294.106903,612.900024 294.986908,621.658875 296.160858,630.378540 
	C297.677643,641.644348 299.562775,652.862976 300.942047,664.144287 
	C302.034943,673.082947 305.456085,680.876282 311.207581,687.678162 
	C320.040802,698.124817 331.711456,702.002869 345.002991,702.002197 
	C387.501984,702.000122 430.001007,702.001526 473.500000,702.001648 
M704.182434,394.967834 
	C705.917542,394.598511 707.725586,394.428955 709.375366,393.826080 
	C717.509277,390.853577 725.724060,388.049042 733.657227,384.602600 
	C737.738098,382.829742 741.388000,379.976898 745.049255,377.355896 
	C747.690186,375.465363 747.875793,373.162170 745.315735,370.772888 
	C742.609131,368.246765 740.060059,365.551819 737.440002,362.932800 
	C722.448608,347.947113 707.506653,332.911377 692.427307,318.014709 
	C688.935669,314.565277 684.974365,311.591125 682.041504,309.090851 
	C678.212097,337.184601 674.162048,366.896973 670.112000,396.609344 
	C670.252625,396.658112 670.393250,396.706848 670.533875,396.755585 
	C670.828369,395.941132 671.122864,395.126709 671.089233,395.219635 
	C672.552124,395.633270 673.958435,396.410675 675.333008,396.358276 
	C684.658203,396.002808 693.976685,395.472260 704.182434,394.967834 
M625.547302,178.999268 
	C617.231689,184.190918 608.916016,189.382568 599.794922,195.077072 
	C622.565613,217.577545 644.483276,239.235168 665.763428,260.262817 
	C665.763428,230.379196 665.763428,199.301422 665.763428,167.837860 
	C651.719116,169.106293 638.565125,172.364822 625.547302,178.999268 
M688.000610,256.195648 
	C688.000610,258.034393 688.000610,259.873138 688.000610,261.711884 
	C687.571045,260.997681 687.141418,260.283508 686.711853,259.569336 
	C708.767944,239.017258 730.824036,218.465164 753.483276,197.351044 
	C733.602173,180.184662 712.068176,170.625763 688.000610,168.016647 
	C688.000610,197.449692 688.000610,226.358337 688.000610,256.195648 
M775.038940,221.560059 
	C772.513367,218.252182 769.987854,214.944305 767.426575,211.589661 
	C746.241394,233.101715 725.529419,254.133316 704.040405,275.953857 
	C734.532959,275.953857 763.482056,275.953857 792.128357,275.953857 
	C792.422974,273.690918 793.247620,271.395538 792.910339,269.285950 
	C790.875244,256.555573 787.168518,244.313644 781.241577,232.818909 
	C780.883179,232.123779 779.213501,232.060043 778.929504,231.379059 
	C777.661621,228.339157 776.675476,225.181747 775.038940,221.560059 
M766.500000,297.000671 
	C745.138000,297.000671 723.775940,297.000671 703.148682,297.000671 
	C723.845337,317.657135 744.599426,338.370880 765.444946,359.175873 
	C780.934082,342.150970 789.187927,320.788422 792.753723,297.000671 
	C784.143433,297.000671 775.821716,297.000671 766.500000,297.000671 
M593.821533,262.001984 
	C607.430176,262.001984 621.038818,262.001984 635.226440,262.001984 
	C618.108032,244.408279 601.603333,227.445267 585.146423,210.531357 
	C573.150635,226.302673 563.757935,242.411957 560.636780,262.001678 
	C572.027649,262.001678 582.485413,262.001678 593.821533,262.001984 
z"/>
<path fill="#000000" opacity="1.000000" stroke="none" 
	d="
M473.000000,702.001648 
	C430.001007,702.001526 387.501984,702.000122 345.002991,702.002197 
	C331.711456,702.002869 320.040802,698.124817 311.207581,687.678162 
	C305.456085,680.876282 302.034943,673.082947 300.942047,664.144287 
	C299.562775,652.862976 297.677643,641.644348 296.160858,630.378540 
	C294.986908,621.658875 294.106903,612.900024 292.980682,604.173523 
	C291.787720,594.929810 290.431915,585.707214 289.196228,576.468811 
	C288.095764,568.241333 287.106873,559.998840 285.988312,551.773865 
	C284.433777,540.342590 282.738861,528.930176 281.227661,517.493347 
	C280.053833,508.609985 279.098724,499.697876 277.991730,490.805389 
	C276.986633,482.731384 275.953033,474.660339 274.847015,466.599670 
	C273.964508,460.167664 272.925415,453.757263 272.006775,447.330017 
	C270.328705,435.589966 268.624390,423.853088 267.053833,412.098450 
	C265.931732,403.700348 265.107117,395.262390 263.975769,386.865662 
	C262.414307,375.276459 260.609772,363.719910 259.060120,352.129242 
	C257.915405,343.567535 257.135468,334.956757 255.968857,326.398407 
	C254.522125,315.784882 252.818283,305.206635 251.279846,294.605255 
	C250.744705,290.917755 250.371490,287.206726 249.947495,283.698059 
	C387.682709,283.698059 525.190735,283.698059 663.169983,283.698059 
	C659.278625,313.109314 655.486206,341.773193 651.549500,371.527313 
	C645.497314,371.680298 639.153564,371.945251 632.808655,371.979340 
	C619.491882,372.050873 606.172974,372.105225 592.858521,371.916779 
	C590.054932,371.877106 587.291077,370.512238 584.462341,370.236755 
	C582.685974,370.063751 580.824768,371.038147 578.997925,371.053558 
	C573.970520,371.096039 568.737732,370.042877 563.996460,371.161682 
	C561.551270,371.738708 558.441101,366.860809 556.897339,371.984009 
	C555.859375,371.489655 554.846802,370.927643 553.774231,370.525513 
	C553.093933,370.270447 552.324463,370.253265 551.594971,370.129395 
	C551.269653,373.498901 548.632812,372.000031 547.157959,371.895081 
	C543.625305,371.643677 540.147583,370.687469 536.615906,370.328278 
	C534.807129,370.144318 532.766235,370.227051 531.116638,370.895813 
	C527.143860,372.506287 523.472290,373.155792 519.866272,370.087646 
	C519.390808,369.683105 518.274170,370.032104 516.345581,370.032104 
	C518.105957,370.822845 518.859558,371.161377 519.739075,371.556427 
	C519.317993,371.755371 519.068054,371.979004 518.822388,371.974304 
	C510.014343,371.805695 501.229980,371.168335 492.388367,371.861847 
	C488.526031,372.164825 484.543854,370.533691 480.617676,370.541626 
	C476.532074,370.549866 472.460419,371.662201 468.359100,371.926880 
	C466.092133,372.073181 464.051422,370.816833 461.405853,371.790588 
	C458.785858,372.754944 455.500549,372.271362 452.568604,371.915527 
	C450.197937,371.627869 447.918732,370.586182 445.407654,370.469452 
	C446.173462,370.823090 446.939301,371.176758 447.705109,371.530396 
	C447.654816,371.737946 447.604492,371.945496 447.554199,372.153046 
	C441.800476,371.564148 436.046753,370.975250 430.235382,370.380432 
	C430.753876,370.804443 431.212524,371.179504 432.610870,372.323029 
	C429.389771,371.783752 427.190277,371.457611 425.013519,371.018829 
	C424.523834,370.920105 424.113525,370.427795 423.666656,370.116699 
	C423.681335,370.650055 423.696014,371.183411 423.710693,371.716766 
	C421.608093,371.736176 419.504333,371.809631 417.403137,371.764008 
	C412.698364,371.661896 407.992737,371.550659 403.291443,371.349915 
	C398.062836,371.126709 392.833832,370.508240 387.613861,370.595001 
	C381.615845,370.694672 375.624390,371.760315 369.635773,371.711426 
	C362.314270,371.651672 354.992279,370.402191 347.681763,370.500854 
	C333.683685,370.689789 319.694855,371.505127 305.699371,371.978485 
	C301.414734,372.123413 297.108704,371.795074 292.834534,372.051361 
	C287.323029,372.381805 282.402283,377.830017 283.080139,383.277008 
	C284.421448,394.055237 286.278229,404.768188 287.787598,415.527008 
	C288.963623,423.909576 289.872589,432.329346 291.014954,440.716949 
	C292.549347,451.982788 294.239349,463.227356 295.776825,474.492798 
	C296.921478,482.879730 297.921997,491.286255 299.001434,499.682220 
	C300.412170,510.655121 301.816498,521.628967 303.264191,532.597046 
	C304.136139,539.203125 305.066742,545.801697 306.004272,552.398865 
	C307.238037,561.080750 308.563568,569.749878 309.740387,578.439331 
	C310.898315,586.989380 311.784119,595.577759 313.032074,604.113831 
	C315.012146,617.657471 314.680054,631.728394 321.101624,644.321350 
	C328.293793,658.425537 340.152039,666.390320 355.623016,668.932068 
	C360.293945,669.699341 365.096069,669.952393 369.838531,669.957031 
	C434.836975,670.020813 499.835632,669.932678 564.833862,670.069458 
	C574.939392,670.090698 580.112488,660.593384 575.475647,653.009277 
	C573.216919,649.314819 569.727234,647.941772 565.286560,647.947327 
	C498.788208,648.030640 432.289673,648.032043 365.791290,647.980225 
	C348.435089,647.966736 339.169830,638.189636 336.966156,621.630920 
	C334.802307,605.371338 332.240906,589.164795 330.063324,572.906921 
	C328.527344,561.439392 327.498260,549.903931 325.957642,538.437134 
	C324.141663,524.921387 321.900177,511.463013 320.068848,497.949158 
	C318.842377,488.898956 318.178986,479.772552 316.954437,470.722046 
	C315.541199,460.276550 313.720673,449.886780 312.204224,439.454315 
	C311.034027,431.404266 310.046753,423.327423 309.002930,415.259247 
	C308.065521,408.013519 307.161804,400.763428 306.177979,393.000671 
	C334.705078,393.000671 363.312164,393.000671 391.919250,393.000671 
	C420.585266,393.000671 449.251251,393.000671 477.917267,393.000671 
	C506.416595,393.000671 534.916016,392.962128 563.415283,393.011627 
	C591.488220,393.060394 619.563477,392.791962 648.279907,393.187256 
	C647.400574,401.242676 646.651245,408.943939 645.698364,416.619904 
	C644.556702,425.816589 643.256897,434.993866 641.996460,444.175537 
	C640.802979,452.869537 639.551514,461.555634 638.362854,470.250275 
	C637.217468,478.628540 636.154968,487.018250 634.991333,495.393951 
	C633.784546,504.079803 632.442444,512.747009 631.265991,521.436768 
	C630.108398,529.986755 629.134521,538.561584 627.989746,547.113342 
	C626.458618,558.550781 624.821472,569.973999 623.265991,581.408203 
	C622.147644,589.629028 621.134949,597.864380 619.991760,606.081665 
	C618.380371,617.664612 616.669983,629.233765 615.043091,640.814575 
	C613.664917,650.625244 613.047302,660.605286 610.839539,670.222595 
	C607.279175,685.731934 594.216125,699.706238 577.722473,701.001892 
	C573.312256,701.348267 568.900757,701.944824 564.488525,701.957153 
	C534.159241,702.041687 503.829559,702.001587 473.000000,702.001648 
M403.998901,591.578857 
	C403.246368,583.045227 396.455048,576.415222 386.422485,579.000610 
	C380.189178,580.606934 376.452332,585.146240 376.361023,590.947205 
	C376.298309,594.931641 378.315826,600.517822 381.332581,602.621155 
	C386.087097,605.935974 392.797760,608.494019 398.094696,603.098877 
	C400.840851,600.301758 402.079254,596.024353 403.998901,591.578857 
M464.971680,520.535889 
	C465.384735,514.358765 457.547272,506.945190 450.677277,507.942780 
	C443.688751,508.957520 437.467377,514.138306 437.959564,521.689026 
	C438.424683,528.824341 444.535492,535.001465 451.686310,534.967957 
	C458.331879,534.936829 463.287750,529.865906 464.971680,520.535889 
M385.321808,435.877106 
	C377.512573,433.382751 370.046936,436.388031 367.431427,443.078857 
	C365.005829,449.283844 368.107544,458.071350 374.175354,460.580200 
	C381.853119,463.754791 388.774017,461.290039 391.928589,454.639893 
	C394.659882,448.882172 393.904327,440.241028 385.321808,435.877106 
z"/>
<path fill="#000000" opacity="1.000000" stroke="none" 
	d="
M703.739868,394.983032 
	C693.976685,395.472260 684.658203,396.002808 675.333008,396.358276 
	C673.958435,396.410675 672.552124,395.633270 671.089233,395.219635 
	C671.122864,395.126709 670.828369,395.941132 670.533875,396.755585 
	C670.393250,396.706848 670.252625,396.658112 670.112000,396.609344 
	C674.162048,366.896973 678.212097,337.184601 682.041504,309.090851 
	C684.974365,311.591125 688.935669,314.565277 692.427307,318.014709 
	C707.506653,332.911377 722.448608,347.947113 737.440002,362.932800 
	C740.060059,365.551819 742.609131,368.246765 745.315735,370.772888 
	C747.875793,373.162170 747.690186,375.465363 745.049255,377.355896 
	C741.388000,379.976898 737.738098,382.829742 733.657227,384.602600 
	C725.724060,388.049042 717.509277,390.853577 709.375366,393.826080 
	C707.725586,394.428955 705.917542,394.598511 703.739868,394.983032 
z"/>
<path fill="#000000" opacity="1.000000" stroke="none" 
	d="
M625.936829,178.981689 
	C638.565125,172.364822 651.719116,169.106293 665.763428,167.837860 
	C665.763428,199.301422 665.763428,230.379196 665.763428,260.262817 
	C644.483276,239.235168 622.565613,217.577545 599.794922,195.077072 
	C608.916016,189.382568 617.231689,184.190918 625.936829,178.981689 
z"/>
<path fill="#000000" opacity="1.000000" stroke="none" 
	d="
M688.000610,255.731308 
	C688.000610,226.358337 688.000610,197.449692 688.000610,168.016647 
	C712.068176,170.625763 733.602173,180.184662 753.483276,197.351044 
	C730.824036,218.465164 708.767944,239.017258 686.711853,259.569336 
	C687.141418,260.283508 687.571045,260.997681 688.000610,261.711884 
	C688.000610,259.873138 688.000610,258.034393 688.000610,255.731308 
z"/>
<path fill="#000000" opacity="1.000000" stroke="none" 
	d="
M775.313232,221.813416 
	C776.675476,225.181747 777.661621,228.339157 778.929504,231.379059 
	C779.213501,232.060043 780.883179,232.123779 781.241577,232.818909 
	C787.168518,244.313644 790.875244,256.555573 792.910339,269.285950 
	C793.247620,271.395538 792.422974,273.690918 792.128357,275.953857 
	C763.482056,275.953857 734.532959,275.953857 704.040405,275.953857 
	C725.529419,254.133316 746.241394,233.101715 767.426575,211.589661 
	C769.987854,214.944305 772.513367,218.252182 775.313232,221.813416 
z"/>
<path fill="#000000" opacity="1.000000" stroke="none" 
	d="
M767.000000,297.000671 
	C775.821716,297.000671 784.143433,297.000671 792.753723,297.000671 
	C789.187927,320.788422 780.934082,342.150970 765.444946,359.175873 
	C744.599426,338.370880 723.845337,317.657135 703.148682,297.000671 
	C723.775940,297.000671 745.138000,297.000671 767.000000,297.000671 
z"/>
<path fill="#000000" opacity="1.000000" stroke="none" 
	d="
M593.382324,262.001831 
	C582.485413,262.001678 572.027649,262.001678 560.636780,262.001678 
	C563.757935,242.411957 573.150635,226.302673 585.146423,210.531357 
	C601.603333,227.445267 618.108032,244.408279 635.226440,262.001984 
	C621.038818,262.001984 607.430176,262.001984 593.382324,262.001831 
z"/>
<path fill="#FFFFFF" opacity="1.000000" stroke="none" 
	d="
M403.998840,591.997314 
	C402.079254,596.024353 400.840851,600.301758 398.094696,603.098877 
	C392.797760,608.494019 386.087097,605.935974 381.332581,602.621155 
	C378.315826,600.517822 376.298309,594.931641 376.361023,590.947205 
	C376.452332,585.146240 380.189178,580.606934 386.422485,579.000610 
	C396.455048,576.415222 403.246368,583.045227 403.998840,591.997314 
z"/>
<path fill="#FDFDFD" opacity="1.000000" stroke="none" 
	d="
M464.971619,520.955078 
	C463.287750,529.865906 458.331879,534.936829 451.686310,534.967957 
	C444.535492,535.001465 438.424683,528.824341 437.959564,521.689026 
	C437.467377,514.138306 443.688751,508.957520 450.677277,507.942780 
	C457.547272,506.945190 465.384735,514.358765 464.971619,520.955078 
z"/>
<path fill="#FFFFFF" opacity="1.000000" stroke="none" 
	d="
M385.621155,436.127319 
	C393.904327,440.241028 394.659882,448.882172 391.928589,454.639893 
	C388.774017,461.290039 381.853119,463.754791 374.175354,460.580200 
	C368.107544,458.071350 365.005829,449.283844 367.431427,443.078857 
	C370.046936,436.388031 377.512573,433.382751 385.621155,436.127319 
z"/>
</svg>